<svg xmlns="http://www.w3.org/2000/svg">
    <symbol id="all" viewBox="0 -960 960 960" stroke="currentColor" stroke-width="3" fill="none">
        <path fill="var(--color-print)" d="M240-160q-33 0-56.5-23.5T160-240q0-33 23.5-56.5T240-320q33 0 56.5 23.5T320-240q0 33-23.5 56.5T240-160Zm240 0q-33 0-56.5-23.5T400-240q0-33 23.5-56.5T480-320q33 0 56.5 23.5T560-240q0 33-23.5 56.5T480-160Zm240 0q-33 0-56.5-23.5T640-240q0-33 23.5-56.5T720-320q33 0 56.5 23.5T800-240q0 33-23.5 56.5T720-160ZM240-400q-33 0-56.5-23.5T160-480q0-33 23.5-56.5T240-560q33 0 56.5 23.5T320-480q0 33-23.5 56.5T240-400Zm240 0q-33 0-56.5-23.5T400-480q0-33 23.5-56.5T480-560q33 0 56.5 23.5T560-480q0 33-23.5 56.5T480-400Zm240 0q-33 0-56.5-23.5T640-480q0-33 23.5-56.5T720-560q33 0 56.5 23.5T800-480q0 33-23.5 56.5T720-400ZM240-640q-33 0-56.5-23.5T160-720q0-33 23.5-56.5T240-800q33 0 56.5 23.5T320-720q0 33-23.5 56.5T240-640Zm240 0q-33 0-56.5-23.5T400-720q0-33 23.5-56.5T480-800q33 0 56.5 23.5T560-720q0 33-23.5 56.5T480-640Zm240 0q-33 0-56.5-23.5T640-720q0-33 23.5-56.5T720-800q33 0 56.5 23.5T800-720q0 33-23.5 56.5T720-640Z" />
    </symbol>
    <symbol id="111" viewBox="0 0 60 50" stroke="currentColor" stroke-width="3" fill="none">
        <path fill="var(--catalog-icon-fill)" d="m51.822 10.66-8.466 6.103c2.678 0 3.371.638 2.987 2.085-1.458 5.385-7.932 29.616-7.932 29.616h7.747L56.5 10.603l-4.678.057Zm-17.702.003-8.47 6.104c2.678 0 3.376.634 2.99 2.08-1.456 5.386-7.932 29.617-7.932 29.617h7.742L38.8 10.6l-4.68.063Zm-17.706-.003-8.472 6.103c2.679 0 3.374.638 2.986 2.085C9.477 24.233 3 48.464 3 48.464h7.745l10.341-37.861-4.672.057Z" />
        <path fill="var(--color-print)" stroke="none" d="M18.28 12.854A7865.12 7865.12 0 0 0 8.68 46.038H6.147c1.713-7.585 4.307-17.625 7.781-30.12.284-1.021 2.19-3.064 4.352-3.064zm17.537 0a7865.117 7865.117 0 0 0-9.602 33.184h-2.532c1.714-7.585 4.307-17.625 7.782-30.12.284-1.021 2.19-3.064 4.352-3.064zm17.536 0a7865.134 7865.134 0 0 0-9.601 33.184H41.22c1.713-7.585 4.307-17.625 7.781-30.12.284-1.021 2.19-3.064 4.352-3.064z" />
    </symbol>
    <symbol id="awards" viewBox="0 0 50 50" stroke="currentColor" stroke-width="3" fill="none" preserveAspectRatio="xMinYMid meet">
        <path d="M12 40.5a.5.5 0 0 0-.5.5v7a.5.5 0 0 0 .5.5h24a.5.5 0 0 0 .5-.5v-7a.5.5 0 0 0-.5-.5H12Z" />
        <path fill="var(--catalog-icon-fill)" d="M35.5 1.5h-23V18c0 6.351 5.149 11.5 11.5 11.5S35.5 24.351 35.5 18V1.5Z" />
        <path d="M21.5 30v10M26.5 30v10M11 3.5H3.5V12c0 5.333 3.167 8.167 9.5 8.5M37 3.5h7.5V12c0 5.333-3.167 8.167-9.5 8.5" />
        <path fill="var(--color-print)" stroke="none" d="M19.95 7h8.1a3 3 0 0 1 2.996 3.15l-.374 7.502a6.68 6.68 0 0 1-13.344 0l-.374-7.503A3 3 0 0 1 19.95 7Z" />
    </symbol>
    <symbol id="bag" viewBox="0 0 60 50" stroke="currentColor" stroke-width="3" fill="none" preserveAspectRatio="xMinYMid meet">
        <path d="M41.399 14c-.732-5.366-5.333-9.5-10.899-9.5-5.566 0-10.167 4.134-10.899 9.5H41.4Z" />
        <rect x="3.5" y="14.5" width="53" height="33" rx="7" fill="var(--catalog-icon-fill)" />
        <rect fill="var(--color-print)" x="11" y="26" width="38" height="14" rx="4" stroke="none" />
    </symbol>
    <symbol id="box" viewBox="0 0 60 50" stroke="currentColor" stroke-width="3" fill="none" preserveAspectRatio="xMinYMid meet">
        <path fill="var(--catalog-icon-fill)" d="M8.5 17.5V44a3.5 3.5 0 0 0 3.5 3.5h36a3.5 3.5 0 0 0 3.5-3.5V17.5h-43Z" />
        <rect fill="var(--catalog-icon-fill)" x="4.5" y="5.5" width="51" height="12" rx="2" />
        <rect fill="var(--color-print)" stroke="none" x="16" y="23" width="28" height="14" rx="4" />
    </symbol>
    <symbol id="cloth" viewBox="0 0 60 50" fill="none">
        <path fill="var(--catalog-icon-fill)" stroke="currentColor" stroke-width="3" d="M16.516 2.913a3.478 3.478 0 0 1 1.65-.413h22.572c.48 0 .947.096 1.36.274.373.153.684.338.972.58L56.093 14.28a3.5 3.5 0 0 1 .431 4.93l-3.214 3.83a3.506 3.506 0 0 1-4.954.413l-3.856-3.37V44c0 2.03-2.485 3.5-4.5 3.5H19c-2.015 0-4.5-1.47-4.5-3.5V20.067l-3.957 3.406a3.5 3.5 0 0 1-4.93-.431l-3.215-3.83a3.5 3.5 0 0 1 .432-4.931L15.852 3.353c.202-.169.412-.308.664-.44Z" />
        <rect fill="var(--color-print)" x="21" y="10" width="17" height="24" rx="4" />
    </symbol>
    <symbol id="compas" viewBox="0 0 50 50" fill="none" stroke="currentColor" preserveAspectRatio="xMinYMid meet">
        <g fill-rule="evenodd">
            <circle cx="25" cy="25" r="23.5" stroke-width="3" />
            <path fill="var(--color-print)" stroke="none" d="M34.16 11.602c4.268 2.924 7.068 7.834 7.068 13.398 0 8.963-7.265 16.228-16.228 16.228-2.539 0-4.942-.583-7.082-1.622L31.062 28.5ZM25 8.772c2.573 0 5.006.598 7.167 1.664L18.937 21.5l-2.963 16.989C11.631 35.577 8.772 30.622 8.772 25c0-8.963 7.265-16.228 16.228-16.228Z" />
            <path stroke-linecap="round" stroke-width="2" d="M34.5 8.546 18.938 21.5 15.5 41.454 31.062 28.5z" />
            <path fill="currentColor" stroke="none" d="m30.161 16.29-8.108 6.75 6.317 3.646z" />
        </g>
    </symbol>
    <symbol id="cup" viewBox="0 0 55 50" stroke="currentColor" stroke-width="3" fill="none" preserveAspectRatio="xMinYMid meet">
        <path d="M38.5 34.681a8.931 8.931 0 0 0 3.732.819c5.621 0 10.268-5.33 10.268-12s-4.647-12-10.268-12a8.93 8.93 0 0 0-3.71.809L38.5 34.681Z" />
        <path fill="var(--catalog-icon-fill)" d="M3.5 5.5V42A5.5 5.5 0 0 0 9 47.5h24a5.5 5.5 0 0 0 5.5-5.5V5.5h-35Z" />
        <rect fill="var(--color-print)" stroke="none" x="10" y="19" width="22" height="22" rx="4" />
    </symbol>
    <symbol id="eat" viewBox="0 0 70 50" stroke="currentColor" stroke-width="3" fill="none" stroke-linecap="round" preserveAspectRatio="xMinYMid meet">
        <path fill="var(--color-print)" stroke="none" d="M16.531 25.246H27.47a6 6 0 0 1 5.38 3.346c.947 1.917 1.42 3.777 1.42 5.58 0 1.646-.395 3.245-1.184 4.796a6 6 0 0 1-5.348 3.278H16.263a6 6 0 0 1-5.348-3.279c-.789-1.55-1.183-3.15-1.183-4.796 0-1.802.472-3.662 1.418-5.58a6 6 0 0 1 5.381-3.345Z" />
        <path stroke-linecap="square" d="m6 17 1.47 1.102a4 4 0 0 0 4.96-.127l1.01-.841a4 4 0 0 1 5.12 0l.88.732a4 4 0 0 0 5.12 0l.88-.732a4 4 0 0 1 5.12 0l1.01.84a4 4 0 0 0 4.96.128L38 17h0" />
        <path fill="var(--catalog-icon-fill)" d="M63 24.5v1.757a4.5 4.5 0 0 0 1.318 3.182h0l.371.372c.52.519.811 1.223.811 1.957h0V45c0 .966-.392 1.841-1.025 2.475A3.489 3.489 0 0 1 62 48.5h0-10a3.489 3.489 0 0 1-2.475-1.025A3.489 3.489 0 0 1 48.5 45h0V31.768c0-.734.292-1.438.81-1.957h0l.372-.372A4.5 4.5 0 0 0 51 26.257h0V24.5h12Zm0-5c.69 0 1.315.28 1.768.732.452.453.732 1.078.732 1.768s-.28 1.315-.732 1.768A2.492 2.492 0 0 1 63 24.5h0-12c-.69 0-1.315-.28-1.768-.732A2.492 2.492 0 0 1 48.5 22c0-.69.28-1.315.732-1.768A2.492 2.492 0 0 1 51 19.5h0Z" />
        <path fill="var(--color-print)" stroke="none" d="M56 29h2a3 3 0 0 1 3 3v9a3 3 0 0 1-3 3h-2a3 3 0 0 1-3-3v-9a3 3 0 0 1 3-3Z" />
        <path fill="var(--catalog-icon-fill)" d="m35.197 8.5 4.772 7.158-1.632 1.24C40.423 23.563 41.5 28.262 41.5 31c0 5.265-1.31 10.312-3.922 15.14a4.497 4.497 0 0 1-3.958 2.36h0-23.24a4.497 4.497 0 0 1-3.958-2.36C3.81 41.312 2.5 36.266 2.5 31c0-2.73 1.071-7.415 3.147-14.057h0L4.02 15.674 8.803 8.5h26.394Zm-1.556-7.001c1.146 0 2.216.397 3.06 1.074a4.887 4.887 0 0 1 1.717 2.753c.163.727.04 1.435-.306 2a2.443 2.443 0 0 1-1.56 1.112 2.5 2.5 0 0 1-.545.06h0H7.993c-.69 0-1.316-.28-1.768-.732a2.492 2.492 0 0 1-.672-2.313 5.111 5.111 0 0 1 1.739-2.861 4.828 4.828 0 0 1 3.067-1.093h0Z" />
    </symbol>
    <symbol id="electronics" viewBox="0 0 70 50" stroke="currentColor" stroke-width="3" fill="none" stroke-linecap="round" preserveAspectRatio="xMinYMid meet">
        <rect fill="var(--catalog-icon-fill)" width="44" height="30" x="2.5" y="10.5" rx="7" />
        <path d="M46.5 14.5h20v21h-20zM60.319 21.319h-2M60.319 29.319h-2" />
        <rect width="26" height="18" x="9" y="17" fill="var(--color-print)" rx="4" stroke="none" />
    </symbol>
    <symbol id="holiday" viewBox="0 0 55 50" stroke="currentColor" stroke-width="3" fill="none" preserveAspectRatio="xMinYMid meet">
        <path d="M15.473 44.844c7.177 5.408 23.235-.072 31.446-10.969 7.461-9.9 5.904-21.609-2.26-27.761-7.64-5.756-18.795-3.042-26.6 7.316C9.681 24.55 8.45 39.552 15.473 44.844Z" />
        <path d="M19.47 27.115c-3.004-4.808 1.177-12.908 7.965-17.15 6.788-4.241 13.613-3.019 16.617 1.79 3.005 4.808 2.108 11.966-4.68 16.208-6.789 4.241-16.897 3.96-19.901-.848Z" fill="var(--color-print)" stroke="none" />
        <path d="M13.256 44.921c-5.73 5.808-10.58.718-7.827-5.807 1.99-4.72 4.096-17.03-3.603-11.311" stroke-width="var(--icon-stroke)" stroke-linecap="round" />
    </symbol>
    <symbol id="home" viewBox="0 0 60 50" stroke-width="3" stroke="currentColor" stroke-linecap="round" fill="none" preserveAspectRatio="xMinYMid meet">
        <path d="M38 13h18M7 31h28.58M1.46 13h4" />
        <path d="M39.2 10.212C37.165 12.905 36.565 20.834 37.4 34a4 4 0 0 1-4 4H10a4 4 0 0 1-4-4V13C6 7.477 10.477 3 16 3l24.384.03a9 9 0 0 1 8.992 9l.008 32.384a3 3 0 0 1-3 3H21a3 3 0 0 1-3-3V39" stroke-linejoin="round" />
        <rect fill="var(--color-print)" x="12" y="10" width="19" height="16" rx="4" stroke="none" />
    </symbol>
    <symbol id="label" viewBox="0 0 50 50" stroke-width="3" stroke="currentColor" stroke-linecap="round" fill="none" preserveAspectRatio="xMinYMid meet">
        <path d="m19.069 47.704-16.65-16.65a2 2 0 0 1 0-2.829l24.49-24.501a2 2 0 0 1 1.282-.582L44.896 2.03a3 3 0 0 1 3.193 3.192l-1.114 16.705a2 2 0 0 1-.581 1.281L21.897 47.704a2 2 0 0 1-2.828 0Z" />
        <circle cx="37.183" cy="12.934" r="3.936" transform="rotate(-135 37.183 12.934)" />
        <rect width="18.05" stroke="none" height="24.666" x="13.456" y="15.435" fill="var(--color-print)" rx="4" transform="rotate(45 22.481 27.768)" />
    </symbol>
    <symbol id="note" viewBox="0 0 50 50" stroke-width="3" stroke="currentColor" fill="none" stroke-linecap="round" preserveAspectRatio="xMinYMid meet">
        <rect fill="var(--catalog-icon-fill)" width="38" height="45" x="5.5" y="2.5" rx="7" />
        <path d="M2.5 33.5h7m-7-9h7M35.5 3.106v43.592M2.5 15.5h7" />
        <rect fill="var(--color-print)" stroke="none" x="14" y="8" width="17" height="34" rx="4" />
    </symbol>
    <symbol id="pen" viewBox="0 0 80 50" stroke-width="var(--icon-stroke)" fill="none" stroke="currentColor" stroke-linecap="round" preserveAspectRatio="xMinYMid meet">
        <path fill="var(--catalog-icon-fill)" d="M39.723 9.501a4.949 4.949 0 0 0-7.09.205L5.024 39.749a3.221 3.221 0 0 0 .147 4.509 3.402 3.402 0 0 0 4.671.028l29.816-27.828a4.8 4.8 0 0 0 .066-6.957ZM71.72 9.504a4.95 4.95 0 0 0-7.089.204L37.024 39.75a3.221 3.221 0 0 0 .146 4.509 3.402 3.402 0 0 0 4.671.028L71.654 16.46a4.8 4.8 0 0 0 .067-6.957Z" stroke-width="3" />
        <path d="m3 46.828 2.121-2.12M17 20.809 26.978 10M49 20.809 58.978 10M35 46.882l2.121-2.121" />
        <path d="M38.65 10.626a3.195 3.195 0 0 1-.053 4.638L24.623 28.213c-.97.9-2.474.887-3.43-.027a2.408 2.408 0 0 1-.112-3.366l12.871-14.054a3.277 3.277 0 0 1 4.697-.14ZM70.631 10.644a3.194 3.194 0 0 1-.052 4.637L56.623 28.212c-.971.9-2.475.888-3.431-.027a2.408 2.408 0 0 1-.112-3.366l12.854-14.035a3.277 3.277 0 0 1 4.697-.14Z" fill="var(--color-print)" stroke="none" />
    </symbol>
    <symbol id="set" viewBox="0 0 60 50" stroke="currentColor" stroke-width="3" fill="none" stroke-linecap="round" preserveAspectRatio="xMinYMid meet">
        <rect fill="var(--catalog-icon-fill)" width="34" height="43" x="3.5" y="4.5" rx="7" />
        <path d="M12.5 9V3m8 6V3m8 6V3" />
        <rect width="23" height="19" x="9" y="22" fill="var(--color-print)" stroke="none" rx="4" />
        <rect width="6" height="22" x="49" y="5" fill="var(--color-print)" stroke="none" rx="3" />
        <path fill="var(--catalog-icon-fill)" d="M52 4.5a4.233 4.233 0 0 0-4.229 4.426l1.546 33.94a2.751 2.751 0 0 0 2.706 2.626 2.623 2.623 0 0 0 2.66-2.504l1.546-34.062A4.234 4.234 0 0 0 52 4.5Z" />
        <path stroke-width="1.5" d="M52 48.067v-2M44.6 22.5 43.96 9.514" />
    </symbol>
    <symbol id="sport" viewBox="0 0 50 50" stroke="none" stroke-width="3" fill="none" preserveAspectRatio="xMinYMid meet">
        <path stroke="currentColor" stroke-width="1" d="m8.831 34.184 9.176 1.325 3.823 8.248-4.675 2.743-9.35-6.937 1.026-5.379Zm33.227 0 1.036 4.392-10.097 7.539-3.978-2.509 3.978-8.239 9.061-1.183ZM25.27 16.76l8.633 6.077-3.332 9.76H20.199l-3.044-9.76 8.114-6.077Zm14.029-4.506 4.894.41 3.201 12.015c-1.982 1.724-3.05 2.636-3.201 2.735-.152.1-2.384-2-6.696-6.298l1.802-8.862Zm-27.7 0c1.301 5.834 1.87 8.8 1.709 8.898-.162.098-2.388 2.186-6.679 6.265l-4.021-3.132 3.382-11.396 5.609-.635ZM31.953 3.5c.964 2.8 1.44 4.259 1.425 4.377-.014.117-2.717 1.576-8.109 4.376l-7.752-4.56L19.239 3.5Z" fill="var(--color-print)" />
        <circle stroke="currentColor" fill="var(--catalog-icon-fill)" cx="25" cy="25" r="23.5" />
    </symbol>
    <symbol id="tree" viewBox="0 0 50 50" stroke="none" stroke-width="3" fill="none" preserveAspectRatio="xMinYMid meet">
        <path fill="var(--catalog-icon-fill)" stroke="currentColor" d="M15.887 33.5H9l10.667-15H14l11-16 11 16h-5.667L41 33.5h-6.887L46 48.5H4l11.887-15Z" />
        <path fill="var(--color-print)" d="m21 15 4-6 4 6h-8Zm-3 14 7-10 7 10H18Zm-5 15 12-12 12 12H13Z" />
    </symbol>
    <symbol id="umbrella" viewBox="0 0 60 50" stroke="currentColor" stroke-width="3" stroke-linecap="round" fill="none" preserveAspectRatio="xMinYMid meet">
        <path d="M13.5 43.5c0 2.567 2.5 5 5.5 5s6.5-1.508 6.5-5V25.315" />
        <path fill="var(--catalog-icon-fill)" d="M47.448 23.5c-.3-4.396-1.907-9.052-4.696-12.72-3.811-5.015-9.555-7.996-17.307-8.281-7.659-.282-13.354 2.558-17.182 7.768C5.48 14.052 3.85 18.983 3.55 23.5h43.897Z" />
        <path fill="var(--color-print)" stroke="none" d="M29.872 17.249a4 4 0 0 1-3.816 3.293c-13.487.41-19.463-.55-17.927-2.88 2.475-3.752 7.91-11.324 16.308-11.324 4.925 0 6.737 3.637 5.435 10.91Z" />
    </symbol>
    <symbol id="unikum" viewBox="0 0 60 50" stroke="none" stroke-width="3" fill="none" preserveAspectRatio="xMinYMid meet">
        <path stroke="currentColor" fill="var(--catalog-icon-fill)" d="M9.94 5h39.803l5.256 8.747-19.431 34.176H24.472L5 13.747z" />
        <path fill="var(--color-print)" d="M53.073 13.892H25.116l5.339 6.556-5.462 8.742L10.868 6.492h37.965z" />
        <path fill="var(--color-print-second)" d="m10.942 6.682 14.077 22.499 5.546-8.736 10.225-.062-15.4 26.34L6.835 13.855z" />
    </symbol>
    <symbol id="wallet" viewBox="0 0 60 50" stroke="currentColor" stroke-width="3" fill="none" preserveAspectRatio="xMinYMid meet">
        <rect width="20" height="28" x="9" y="14" fill="var(--color-print)" stroke="none" rx="4" />
        <path d="M50.5 19v-4.5a6 6 0 0 0-6-6h-35a6 6 0 0 0-6 6v27a6 6 0 0 0 6 6h35a6 6 0 0 0 6-6V35" />
        <rect width="19" height="16" x="38.5" y="19.5" rx="7" />
    </symbol>
</svg>
